<svg xmlns="http://www.w3.org/2000/svg" xmlns:xlink="http://www.w3.org/1999/xlink" version="1.1" id="Layer_1" x="0px" y="0px" viewBox="0 0 1050 650" style="enable-background:new 0 0 1050 650;" xml:space="preserve">
<style type="text/css">
	.st0{fill:#010101;}
	.st1{fill:#603494;}
</style>
<g id="Logo_and_Copy">
	<g>
		<path class="st0" d="M49.44,537.06v71.73H29.66v-71.73H2.23v-18.21h74.54v18.21H49.44z M103.29,608.79v-89.94h67.9v17.65h-48.23    v18.21h42.38v17.65h-42.38v18.89h48.9v17.65h-68.58V608.79z M243.71,610.36c-26.53,0-46.21-20.46-46.21-46.32v-0.22    c0-25.63,19.34-46.54,46.88-46.54c16.98,0,27.09,5.62,35.53,13.94l-12.59,14.5c-6.97-6.3-14.05-10.12-23.05-10.12    c-15.18,0-26.08,12.59-26.08,27.99v0.22c0,15.4,10.68,28.33,26.08,28.33c10.23,0,16.64-4.16,23.61-10.57l12.59,12.7    C271.37,604.18,261.03,610.36,243.71,610.36z M364.46,608.79V572.7h-36.54v36.09h-19.79v-89.94h19.79v35.64h36.54v-35.64h19.79    v89.94H364.46z M482.5,608.79l-43.62-57.22v57.22h-19.56v-89.94h18.21l42.16,55.43v-55.43h19.56v89.94H482.5z M575.81,610.36    c-27.77,0-47.67-20.69-47.67-46.32v-0.22c0-25.63,20.24-46.54,48.01-46.54c27.77,0,47.67,20.69,47.67,46.32v0.22    C623.71,589.45,603.58,610.36,575.81,610.36z M603.02,563.82c0-15.4-11.35-28.33-27.21-28.33c-15.96,0-26.98,12.59-26.98,27.99    v0.22c0,15.4,11.35,28.33,27.21,28.33c15.85,0,26.98-12.59,26.98-27.99V563.82z M652.15,608.79v-89.94h19.79v71.95h44.86v17.99    H652.15z M783.57,610.36c-27.77,0-47.67-20.69-47.67-46.32v-0.22c0-25.63,20.24-46.54,48.01-46.54    c27.77,0,47.67,20.69,47.67,46.32v0.22C831.47,589.45,811.34,610.36,783.57,610.36z M810.78,563.82    c0-15.4-11.35-28.33-27.21-28.33c-15.96,0-26.98,12.59-26.98,27.99v0.22c0,15.4,11.35,28.33,27.21,28.33s26.98-12.59,26.98-27.99    V563.82z M902.74,610.36c-27.99,0-47.33-19.67-47.33-46.32v-0.22c0-25.63,19.9-46.54,47.22-46.54c16.19,0,25.97,4.38,35.3,12.37    l-12.48,15.06c-6.97-5.73-13.15-9.11-23.5-9.11c-14.39,0-25.86,12.7-25.86,27.99v0.22c0,16.41,11.35,28.56,27.21,28.56    c7.2,0,13.6-1.8,18.66-5.4v-12.82h-19.9v-17.09h39.12v39.12C931.86,603.95,919.16,610.36,902.74,610.36z M1013.14,572.92v35.86    h-19.79v-35.53l-34.63-54.53h23.16l21.47,36.09l21.81-36.09h22.48L1013.14,572.92z"></path>
		<path class="st1" d="M347.93,272.86c-2.36,15.85-6.86,31.37-13.94,46.66c-10.34,23.38-24.73,45.87-44.07,64.76    c-36.43,36.88-90.84,60.26-146.49,60.26H2.67v-80.95h140.64c33.28,0,65.21-12.59,86.79-35.08c15.63-15.85,26.53-35.19,32.15-55.65    H347.93z M347.93,211.14c-2.36-15.85-6.86-31.37-13.94-46.66c-10.34-23.38-24.73-45.87-44.07-64.76    c-36.43-36.88-90.84-60.26-146.6-60.26H2.67v80.95h140.64c33.28,0,65.21,12.59,86.79,35.08c15.63,15.85,26.53,35.19,32.15,55.65    C262.26,211.14,347.93,211.14,347.93,211.14z M524.55,309.29L417.07,444.54H310.49l160.88-202.48L310.6,39.47h106.58    l107.48,135.13L632.02,39.47H738.6L577.61,242.06l160.88,202.48H631.91L524.55,309.29z M786.83,272.86    c5.62,20.46,16.53,39.8,32.15,55.65c21.59,22.48,53.51,35.08,86.79,35.08h140.64v80.95H905.78c-55.76,0-110.18-23.38-146.49-60.26    c-19.34-18.89-33.73-41.37-44.07-64.76c-7.08-15.29-11.58-30.8-13.94-46.66H786.83z M786.83,211.14    c5.62-20.46,16.53-39.8,32.15-55.65c21.59-22.48,53.51-35.08,86.79-35.08h140.64V39.47H905.78c-55.76,0-110.18,23.38-146.49,60.26    c-19.34,18.89-33.73,41.37-44.07,64.76c-7.08,15.29-11.58,30.8-13.94,46.66H786.83z"></path>
	</g>
</g>
</svg>