<?xml version="1.0" encoding="UTF-8"?>
<svg clip-rule="evenodd" fill-rule="evenodd" image-rendering="optimizeQuality" shape-rendering="geometricPrecision" text-rendering="geometricPrecision" version="1.1" viewBox="0 0 1890 399" xmlns="http://www.w3.org/2000/svg">
    <path d="m1679.5 48.5c13.86-1.9497 21.86 3.8836 24 17.5-0.22 6.3319-2.88 11.332-8 15-12.75 4.994-16.58 13.827-11.5 26.5 3.72 3.773 7.88 6.94 12.5 9.5 3.89 4.806 8.23 9.14 13 13 12.8 6.171 23.97 4.004 33.5-6.5 2.73-5.793 5.73-11.46 9-17 13.67-12 27.33-12 41 0 8.67 12 8.67 24 0 36-10.76 9.907-22.59 11.407-35.5 4.5-14.01-12.821-27.84-12.655-41.5 0.5-1.71 2.456-3.04 5.123-4 8-0.45 4.526-1.62 8.859-3.5 13 3.07 9.188 9.07 11.521 18 7 8.7 1.396 11.87 6.396 9.5 15-3.75 6.042-8.91 7.542-15.5 4.5-3.18-3.511-5.01-7.678-5.5-12.5-3.54-4.078-7.71-5.245-12.5-3.5-12.78 14.096-28.45 18.762-47 14-26.86-11.553-36.02-31.386-27.5-59.5 8.31-16.62 21.81-25.786 40.5-27.5 12.69-9.4526 13.19-19.619 1.5-30.5-4.93-12.004-1.76-21.004 9.5-27z" fill="#fefffe" opacity=".967"/>
    <path d="m1489.5 51.5c50.68 2.2158 85.85 26.549 105.5 73 3.15 9.426 5.15 19.092 6 29 0.67 63.333 0.67 126.67 0 190-0.79 3.083-2.62 5.249-5.5 6.5-18.67 0.667-37.33 0.667-56 0-1.79-0.785-3.29-1.951-4.5-3.5-1.32-32.581-1.99-65.248-2-98-2.45-18.786-12.62-31.286-30.5-37.5-25.48-4.49-42.65 5.343-51.5 29.5-0.98 35.379-1.98 70.713-3 106-1.21 1.549-2.71 2.715-4.5 3.5-19 0.667-38 0.667-57 0-2.17-0.833-3.67-2.333-4.5-4.5-0.67-64.667-0.67-129.33 0-194 6.07-41.713 27.9-71.879 65.5-90.5 13.57-5.729 27.57-8.8956 42-9.5zm-5 53c28.61 0.274 44.61 14.608 48 43-4.33 29.508-21.33 43.341-51 41.5-21.25-5.749-32.92-19.582-35-41.5 2.18-23.835 14.85-38.168 38-43z" fill="#fefffe" opacity=".987"/>
    <path d="m358.5 117.5c10.339-0.166 20.672 0 31 0.5 5.5 1.5 9 5 10.5 10.5 1.037 5.894 0.371 11.561-2 17-1.938 2.606-4.438 4.439-7.5 5.5-6.333 0.333-12.667 0.667-19 1-10.887 1.014-18.387 6.514-22.5 16.5-0.667-13.667-0.667-27.333 0-41 2.022-4.52 5.189-7.853 9.5-10z" fill="#fefffe" opacity=".961"/>
    <path d="m695.5 125.5c10.006-0.166 20.006 0 30 0.5 5.91 1.579 9.41 5.412 10.5 11.5 0.5 9.994 0.666 19.994 0.5 30h105c-0.166-10.006 0-20.006 0.5-30 1.402-5.736 4.902-9.569 10.5-11.5 10.333-0.667 20.667-0.667 31 0 3.402 1.4 6.236 3.567 8.5 6.5 1.436 11.59 1.936 23.257 1.5 35h65c0.166 7.008 0 14.008-0.5 21-1.187 4.209-3.687 7.376-7.5 9.5-18.932 1.462-37.932 1.962-57 1.5-0.167 27.669 0 55.335 0.5 83 0.255 17.358 8.755 28.192 25.5 32.5 13.228 2.244 26.561 3.077 40 2.5 0.166 7.341 0 14.674-0.5 22-1.927 4.928-5.427 8.094-10.5 9.5-20.125 1.249-40.125 0.249-60-3-16.456-3.631-29.623-12.131-39.5-25.5-2.789-5.034-4.789-10.368-6-16-1.437-34.974-1.937-69.974-1.5-105h-105c-0.167 29.669 0 59.335 0.5 89 2.603 13.938 10.77 22.771 24.5 26.5 13.567 2.221 27.234 3.054 41 2.5 0.396 7.753-0.104 15.42-1.5 23-2.315 4.317-5.815 7.15-10.5 8.5-18.4 1.007-36.734 0.341-55-2-17.849-3-32.349-11.5-43.5-25.5-3.726-6.177-6.059-12.844-7-20-0.5-33.998-0.667-67.998-0.5-102-26.333 5-37-5.667-32-32h32c-0.167-10.672 0-21.339 0.5-32 2.106-4.943 5.606-8.276 10.5-10z" fill="#fefffe" opacity=".978"/>
    <path d="m1216.5 125.5c10.01-0.166 20.01 0 30 0.5 5.07 1.406 8.57 4.572 10.5 9.5 0.33 50 0.67 100 1 150 0.76 14.357 7.93 23.857 21.5 28.5 14.48 3.15 29.15 4.317 44 3.5 5.26 25.572-4.91 36.239-30.5 32-22.37 1.57-43.53-2.596-63.5-12.5-14.07-8.971-21.91-21.804-23.5-38.5-0.67-54-0.67-108 0-162 1.68-5.516 5.18-9.182 10.5-11z" fill="#fefffe" opacity=".98"/>
    <path d="m93.5 167.5c14.051-0.409 28.051 0.091 42 1.5 7.568 2.038 13.734 6.205 18.5 12.5 20.256 40.846 40.256 81.846 60 123 2.135 4.825 4.801 5.159 8 1 20.077-41.82 40.41-83.487 61-125 11.469-11.348 25.303-15.681 41.5-13 6 0.333 12 0.667 18 1-30.167 57-60.333 114-90.5 171-9.048 9.564-20.214 13.564-33.5 12-10.897 0.857-20.897-1.643-30-7.5-1.952-2.074-3.785-4.241-5.5-6.5-30.114-56.562-59.947-113.23-89.5-170z" fill="#fefffe" opacity=".974"/>
    <path d="m361.5 167.5c10.066-0.395 20.066 0.105 30 1.5 4.317 2.315 7.15 5.815 8.5 10.5 0.667 53 0.667 106 0 159-1.605 5.938-5.438 9.438-11.5 10.5-9.667 0.667-19.333 0.667-29 0-5.5-1.5-9-5-10.5-10.5-0.667-53.333-0.667-106.67 0-160 2.263-5.874 6.43-9.541 12.5-11z" fill="#fefffe" opacity=".98"/>
    <path d="m513.5 167.5c19.336-0.167 38.67 0 58 0.5 19.148 0.361 37.148 5.028 54 14 16.995 11.146 25.828 26.979 26.5 47.5 1.353 10.056 0.02 19.723-4 29-5.755 7.965-13.588 12.465-23.5 13.5-47.332 0.5-94.665 0.667-142 0.5-0.462 8.891 0.704 17.558 3.5 26 3.23 7.563 8.73 12.729 16.5 15.5 4.6 1.317 9.266 2.317 14 3 42.665 0.5 85.332 0.667 128 0.5 0.166 7.341 0 14.674-0.5 22-1.927 4.928-5.427 8.094-10.5 9.5-48.354 0.95-96.688 0.617-145-1-36.845-5.844-56.678-27.344-59.5-64.5-0.667-16-0.667-32 0-48 2.238-33.577 19.738-54.41 52.5-62.5 10.698-2.497 21.364-4.331 32-5.5zm15 31c12.05-0.188 24.05 0.479 36 2 14.967 1.544 25.8 8.877 32.5 22 1.844 4.711 1.844 9.377 0 14-1.214 1.549-2.714 2.715-4.5 3.5-30.03 0.056-60.03 0.723-90 2-8.031 1.425-14.531 5.258-19.5 11.5-1.115-11.139-0.448-22.139 2-33 4.674-8.339 11.507-14.172 20.5-17.5 7.678-2.165 15.345-3.665 23-4.5z" fill="#fefffe" opacity=".975"/>
    <path d="m1048.5 167.5c23.69-0.377 47.36 0.123 71 1.5 21.52 1.607 40.02 9.774 55.5 24.5 9.43 13.046 13.93 27.712 13.5 44 0.28 19.538-9.06 31.038-28 34.5-47.67 0.5-95.33 0.667-143 0.5 0.14 10 1.97 19.666 5.5 29 7.32 9.746 17.15 14.912 29.5 15.5 42.67 0.5 85.33 0.667 128 0.5 0.17 7.341 0 14.674-0.5 22-1.93 4.928-5.43 8.094-10.5 9.5-48.02 0.95-96.02 0.617-144-1-37.13-4.463-57.297-25.296-60.5-62.5-0.667-17.333-0.667-34.667 0-52 2.569-30.904 18.736-50.737 48.5-59.5 11.65-3.05 23.31-5.216 35-6.5zm16 31c14.48-0.433 28.81 0.734 43 3.5 15.06 3.889 24.06 13.389 27 28.5 0.11 4.537-1.89 7.703-6 9.5-28 0.333-56 0.667-84 1-6.26 0.733-12.26 2.399-18 5-3.5 2.167-6.33 5-8.5 8.5-0.57-9.358-0.23-18.691 1-28 4.82-14.148 14.66-22.648 29.5-25.5 5.47-0.867 10.81-1.7 16-2.5z" fill="#fefffe" opacity=".975"/>
    <path d="m1663.5 207.5c24.64-1.277 40.8 9.723 48.5 33 1.62 33.97 1.95 67.97 1 102-0.5 3.52-2.34 6.02-5.5 7.5-25.33 0.667-50.67 0.667-76 0-2.88-1.251-4.71-3.417-5.5-6.5-0.96-34.367-0.63-68.7 1-103 5.43-18.6 17.59-29.6 36.5-33z" fill="#fefffe" opacity=".981"/>
</svg>
